<svg id="svg" version="1.1" xmlns="http://www.w3.org/2000/svg" xmlns:xlink="http://www.w3.org/1999/xlink" width="400" height="400" viewBox="0, 0, 400,400"><g id="svgg"><path id="path0" d="M202.200 105.478 C 199.497 105.720,197.093 106.928,194.767 109.210 C 193.076 110.869,192.576 111.683,191.256 114.919 C 190.975 115.608,190.800 118.694,190.800 122.947 C 190.800 130.746,190.737 130.579,194.312 132.230 C 195.229 132.654,195.984 133.237,195.990 133.527 C 195.996 133.871,196.278 133.966,196.802 133.799 C 197.326 133.633,197.684 133.753,197.835 134.147 C 197.962 134.478,198.320 134.652,198.630 134.533 C 198.940 134.414,199.296 134.586,199.422 134.914 C 199.559 135.271,199.961 135.431,200.421 135.310 C 200.876 135.191,201.282 135.348,201.415 135.695 C 201.559 136.070,201.993 136.214,202.620 136.094 C 203.320 135.960,203.600 136.084,203.600 136.528 C 203.600 137.015,203.903 137.100,205.000 136.923 C 206.093 136.745,206.400 136.831,206.400 137.312 C 206.400 137.791,206.826 137.915,208.300 137.865 C 209.379 137.828,210.171 137.973,210.133 138.200 C 210.019 138.883,225.301 138.727,225.839 138.039 C 226.157 137.633,226.737 137.552,227.939 137.744 C 229.272 137.957,229.600 137.890,229.600 137.405 C 229.600 137.026,229.974 136.800,230.600 136.800 C 232.117 136.800,232.133 136.847,228.084 129.600 C 227.530 128.610,226.565 126.855,225.939 125.700 C 225.312 124.545,224.236 122.565,223.546 121.300 C 221.841 118.171,221.692 113.932,223.186 111.027 C 224.103 109.244,227.261 106.000,228.080 106.000 C 228.282 106.000,228.336 105.820,228.200 105.600 C 227.968 105.225,206.159 105.123,202.200 105.478 M355.210 209.192 C 354.596 209.574,354.739 209.915,357.899 215.600 C 361.518 222.110,362.433 224.023,362.146 224.487 C 360.779 226.699,354.632 232.550,349.800 236.239 C 347.908 237.683,340.908 242.400,340.656 242.400 C 340.560 242.400,339.327 243.101,337.917 243.958 C 330.122 248.694,319.499 252.882,309.494 255.165 C 306.171 255.924,305.880 255.823,304.698 253.500 C 304.111 252.345,302.976 250.230,302.176 248.800 C 301.376 247.370,300.161 245.159,299.476 243.886 C 297.222 239.695,296.531 239.637,294.579 243.470 C 294.151 244.311,293.625 245.125,293.412 245.278 C 293.198 245.431,293.147 245.680,293.298 245.831 C 293.448 245.982,293.389 246.446,293.166 246.863 C 292.581 247.956,292.347 250.301,292.742 251.108 C 292.929 251.488,293.513 252.700,294.041 253.800 C 294.568 254.900,295.090 255.890,295.201 256.000 C 295.311 256.110,295.671 256.740,296.001 257.400 C 296.330 258.060,296.827 258.840,297.104 259.132 C 297.381 259.425,297.505 259.830,297.380 260.032 C 297.255 260.235,297.343 260.400,297.576 260.400 C 297.809 260.400,298.000 260.694,298.000 261.053 C 298.000 261.412,298.315 261.997,298.700 262.353 C 299.085 262.709,299.459 263.270,299.530 263.600 C 299.602 263.930,299.827 264.260,300.030 264.333 C 300.234 264.407,300.400 264.812,300.400 265.233 C 300.400 265.655,300.580 266.000,300.800 266.000 C 301.020 266.000,301.200 266.360,301.200 266.800 C 301.200 267.240,301.380 267.600,301.600 267.600 C 301.820 267.600,302.000 267.960,302.000 268.400 C 302.000 268.840,302.180 269.200,302.400 269.200 C 302.620 269.200,302.800 269.470,302.800 269.800 C 302.800 270.130,302.980 270.400,303.200 270.400 C 303.420 270.400,303.600 270.670,303.600 271.000 C 303.600 271.330,303.746 271.600,303.925 271.600 C 304.104 271.600,304.498 272.230,304.800 273.000 C 305.102 273.770,305.496 274.400,305.675 274.400 C 305.854 274.400,306.000 274.760,306.000 275.200 C 306.000 275.640,306.159 276.000,306.353 276.000 C 306.548 276.000,306.807 276.315,306.929 276.700 C 307.051 277.085,307.418 277.850,307.746 278.400 C 308.073 278.950,308.773 280.300,309.301 281.400 C 310.472 283.841,311.949 286.467,312.438 286.980 C 312.637 287.189,312.800 287.684,312.800 288.080 C 312.800 288.476,312.959 288.800,313.153 288.800 C 313.348 288.800,313.613 289.115,313.742 289.500 C 314.484 291.703,316.794 294.800,317.695 294.800 C 318.083 294.800,318.400 294.980,318.400 295.200 C 318.400 295.420,318.940 295.600,319.600 295.600 C 320.260 295.600,320.800 295.780,320.800 296.000 C 320.800 296.245,322.733 296.400,325.800 296.400 C 328.867 296.400,330.800 296.245,330.800 296.000 C 330.800 295.780,331.790 295.600,333.000 295.600 C 334.210 295.600,335.200 295.420,335.200 295.200 C 335.200 294.980,335.830 294.800,336.600 294.800 C 337.370 294.800,338.000 294.620,338.000 294.400 C 338.000 294.180,338.630 294.000,339.400 294.000 C 340.170 294.000,340.800 293.820,340.800 293.600 C 340.800 293.380,341.340 293.200,342.000 293.200 C 342.660 293.200,343.200 293.020,343.200 292.800 C 343.200 292.580,343.560 292.400,344.000 292.400 C 344.440 292.400,344.800 292.220,344.800 292.000 C 344.800 291.780,345.260 291.600,345.822 291.600 C 346.747 291.600,348.496 290.941,351.761 289.362 C 352.400 289.053,353.165 288.800,353.461 288.800 C 353.758 288.800,354.000 288.634,354.000 288.431 C 354.000 288.228,354.675 287.842,355.500 287.573 C 356.325 287.304,357.092 286.945,357.204 286.774 C 357.316 286.604,357.669 286.405,357.988 286.332 C 358.307 286.259,358.925 285.885,359.360 285.500 C 359.795 285.115,360.387 284.800,360.675 284.800 C 360.964 284.800,361.200 284.620,361.200 284.400 C 361.200 284.180,361.560 284.000,362.000 284.000 C 362.440 284.000,362.800 283.820,362.800 283.600 C 362.800 283.380,363.070 283.200,363.400 283.200 C 363.730 283.200,364.000 283.020,364.000 282.800 C 364.000 282.580,364.270 282.400,364.600 282.400 C 364.930 282.400,365.200 282.220,365.200 282.000 C 365.200 281.780,365.436 281.600,365.725 281.600 C 366.013 281.600,366.631 281.244,367.099 280.809 C 367.566 280.373,368.185 279.968,368.474 279.909 C 368.763 279.849,369.270 279.521,369.600 279.181 C 369.930 278.841,370.830 278.127,371.600 277.594 C 372.370 277.062,373.200 276.440,373.444 276.213 C 373.689 275.986,374.578 275.260,375.421 274.600 C 377.616 272.880,379.869 270.837,381.545 269.046 C 382.345 268.192,383.540 266.922,384.200 266.224 C 385.498 264.852,386.717 263.016,387.071 261.900 C 387.193 261.515,387.452 261.200,387.647 261.200 C 387.841 261.200,388.000 260.840,388.000 260.400 C 388.000 259.960,388.180 259.600,388.400 259.600 C 388.961 259.600,388.908 253.474,388.336 252.219 C 388.080 251.658,387.720 251.200,387.536 251.200 C 387.351 251.200,387.200 250.840,387.200 250.400 C 387.200 249.960,387.065 249.599,386.900 249.599 C 386.735 249.598,386.150 248.608,385.600 247.400 C 385.050 246.192,384.465 245.202,384.300 245.201 C 384.135 245.201,384.000 244.930,384.000 244.600 C 384.000 244.270,383.820 244.000,383.600 244.000 C 383.380 244.000,383.200 243.730,383.200 243.400 C 383.200 243.070,383.020 242.800,382.800 242.800 C 382.580 242.800,382.400 242.440,382.400 242.000 C 382.400 241.560,382.220 241.200,382.000 241.200 C 381.780 241.200,381.600 240.855,381.600 240.433 C 381.600 240.012,381.465 239.607,381.300 239.533 C 381.135 239.460,380.567 238.545,380.037 237.500 C 379.508 236.455,378.923 235.600,378.737 235.600 C 378.552 235.600,378.400 235.240,378.400 234.800 C 378.400 234.360,378.220 234.000,378.000 234.000 C 377.780 234.000,377.600 233.640,377.600 233.200 C 377.600 232.760,377.464 232.400,377.298 232.400 C 377.131 232.400,376.738 231.815,376.424 231.100 C 376.110 230.385,375.350 228.945,374.737 227.900 C 374.123 226.855,373.751 225.997,373.910 225.994 C 374.070 225.991,374.020 225.856,373.800 225.694 C 373.417 225.412,371.893 222.789,371.017 220.903 C 370.787 220.410,370.465 220.005,370.300 220.003 C 370.135 220.001,370.000 219.655,370.000 219.233 C 370.000 218.812,369.865 218.407,369.700 218.333 C 369.535 218.260,368.967 217.345,368.437 216.300 C 367.908 215.255,367.323 214.400,367.137 214.400 C 366.952 214.400,366.800 214.040,366.800 213.600 C 366.800 213.160,366.620 212.800,366.400 212.800 C 366.180 212.800,366.000 212.530,366.000 212.200 C 366.000 211.870,365.820 211.600,365.600 211.600 C 365.380 211.600,365.200 211.344,365.200 211.031 C 365.200 210.718,364.525 210.245,363.700 209.979 C 362.875 209.713,362.020 209.365,361.800 209.206 C 361.209 208.778,355.895 208.766,355.210 209.192 M212.792 261.004 C 212.289 261.273,211.562 261.410,211.174 261.309 C 210.787 261.208,208.970 261.519,207.135 262.000 C 205.301 262.481,203.440 262.908,203.000 262.949 C 202.560 262.990,201.930 263.194,201.600 263.401 C 201.270 263.609,200.820 263.784,200.600 263.789 C 200.003 263.805,193.821 266.923,193.667 267.286 C 193.593 267.459,193.312 267.600,193.042 267.600 C 192.772 267.600,192.169 267.956,191.701 268.391 C 191.234 268.827,190.620 269.232,190.336 269.291 C 189.625 269.441,188.800 270.249,188.800 270.795 C 188.800 271.044,188.620 271.136,188.400 271.000 C 188.180 270.864,188.000 270.901,188.000 271.082 C 188.000 271.263,187.288 271.851,186.417 272.389 C 185.547 272.927,184.913 273.447,185.010 273.543 C 185.106 273.640,184.801 274.052,184.332 274.459 C 183.862 274.867,183.635 275.200,183.828 275.200 C 184.020 275.200,183.759 275.494,183.247 275.852 C 182.735 276.211,182.044 277.156,181.711 277.952 C 181.379 278.749,180.615 280.030,180.013 280.800 C 179.412 281.570,178.308 283.324,177.560 284.699 C 176.812 286.073,175.930 287.288,175.600 287.398 C 174.920 287.626,174.000 289.398,174.000 290.480 C 174.000 290.876,173.843 291.200,173.650 291.200 C 173.458 291.200,173.300 291.688,173.300 292.283 C 173.300 292.879,173.097 293.434,172.850 293.517 C 172.603 293.599,172.400 294.267,172.400 295.000 C 172.400 295.733,172.230 296.393,172.021 296.467 C 171.813 296.540,171.600 297.455,171.547 298.500 C 171.494 299.545,171.313 300.400,171.145 300.400 C 170.976 300.400,170.838 303.910,170.836 308.200 C 170.835 312.490,170.970 316.000,171.135 316.000 C 171.301 316.000,171.482 316.670,171.537 317.488 C 171.592 318.306,171.799 319.076,171.997 319.198 C 172.195 319.321,172.401 320.170,172.455 321.086 C 172.509 322.003,172.699 322.662,172.877 322.553 C 173.055 322.443,173.222 322.723,173.250 323.176 C 173.320 324.325,173.367 324.489,173.900 325.447 C 174.160 325.913,174.258 326.408,174.119 326.547 C 173.980 326.686,174.077 326.800,174.333 326.800 C 174.590 326.800,174.800 327.235,174.800 327.767 C 174.800 328.298,174.988 328.796,175.218 328.873 C 175.448 328.949,175.666 329.414,175.703 329.906 C 175.740 330.398,175.923 330.800,176.109 330.800 C 176.295 330.800,176.336 330.980,176.200 331.200 C 176.064 331.420,176.146 331.600,176.383 331.600 C 176.619 331.600,177.125 332.275,177.506 333.100 C 178.302 334.820,178.523 335.134,180.300 337.060 C 181.015 337.835,181.600 338.561,181.600 338.673 C 181.600 339.087,186.764 343.902,186.979 343.688 C 187.100 343.566,187.200 343.777,187.200 344.157 C 187.200 344.537,187.360 344.749,187.555 344.628 C 187.750 344.507,188.132 344.677,188.404 345.004 C 189.431 346.242,189.600 345.426,189.600 339.224 C 189.600 335.404,189.760 332.748,190.000 332.600 C 190.220 332.464,190.400 331.733,190.400 330.976 C 190.400 330.219,190.580 329.600,190.800 329.600 C 191.020 329.600,191.200 329.240,191.200 328.800 C 191.200 328.360,191.380 328.000,191.600 328.000 C 191.820 328.000,192.000 327.714,192.000 327.365 C 192.000 326.603,196.278 322.400,197.054 322.400 C 197.354 322.400,197.600 322.220,197.600 322.000 C 197.600 321.780,198.050 321.600,198.600 321.600 C 199.150 321.600,199.600 321.420,199.600 321.200 C 199.600 320.676,235.333 320.651,236.305 321.174 C 236.687 321.379,237.585 321.783,238.300 322.071 C 239.015 322.360,239.600 322.731,239.600 322.898 C 239.600 323.064,239.798 323.200,240.040 323.200 C 240.650 323.200,244.000 326.806,244.000 327.464 C 244.000 327.759,244.180 328.000,244.400 328.000 C 244.620 328.000,244.800 328.349,244.800 328.776 C 244.800 329.203,244.980 329.664,245.200 329.800 C 245.420 329.936,245.600 330.656,245.600 331.400 C 245.600 332.144,245.780 332.864,246.000 333.000 C 246.241 333.149,246.400 335.894,246.400 339.894 C 246.400 346.207,246.435 346.507,247.100 345.884 C 247.947 345.090,254.571 338.456,255.406 337.566 C 255.733 337.218,256.000 336.712,256.000 336.443 C 256.000 336.173,256.160 336.051,256.355 336.172 C 256.682 336.374,257.342 334.985,257.243 334.300 C 257.219 334.135,257.349 334.000,257.532 334.000 C 257.714 334.000,258.285 333.100,258.800 332.000 C 259.315 330.900,259.886 330.000,260.068 330.000 C 260.251 330.000,260.400 329.640,260.400 329.200 C 260.400 328.760,260.580 328.400,260.800 328.400 C 261.020 328.400,261.163 328.265,261.119 328.100 C 260.983 327.599,262.138 324.800,262.480 324.800 C 262.656 324.800,262.779 324.665,262.753 324.500 C 262.603 323.555,262.847 321.982,263.117 322.149 C 263.291 322.256,263.476 321.797,263.527 321.128 C 263.578 320.459,263.795 319.583,264.010 319.182 C 264.224 318.781,264.400 317.901,264.400 317.226 C 264.400 316.552,264.592 316.000,264.826 316.000 C 265.680 316.000,264.857 297.970,263.959 297.020 C 263.762 296.811,263.600 295.956,263.600 295.120 C 263.600 294.284,263.420 293.600,263.200 293.600 C 262.980 293.600,262.800 293.060,262.800 292.400 C 262.800 291.740,262.620 291.200,262.400 291.200 C 262.180 291.200,262.000 290.840,262.000 290.400 C 262.000 289.960,261.820 289.600,261.600 289.600 C 261.380 289.600,261.200 289.359,261.200 289.064 C 261.200 288.251,258.790 283.600,258.369 283.600 C 258.166 283.600,258.000 283.330,258.000 283.000 C 258.000 282.670,257.809 282.400,257.576 282.400 C 257.343 282.400,257.255 282.235,257.380 282.032 C 257.505 281.830,257.336 281.393,257.004 281.061 C 256.672 280.729,256.400 280.353,256.400 280.225 C 256.400 279.681,254.082 276.851,253.837 277.096 C 253.689 277.244,253.464 276.968,253.337 276.483 C 253.211 275.997,252.936 275.600,252.728 275.600 C 252.519 275.600,251.894 275.060,251.339 274.400 C 250.783 273.740,250.064 273.200,249.741 273.200 C 249.417 273.200,249.228 273.065,249.320 272.900 C 249.498 272.581,246.978 269.956,246.570 270.035 C 246.437 270.061,245.894 269.704,245.363 269.243 C 244.832 268.781,244.292 268.421,244.163 268.443 C 244.034 268.464,243.495 268.105,242.964 267.644 C 242.434 267.183,242.000 266.986,242.000 267.206 C 242.000 267.445,241.688 267.412,241.226 267.123 C 240.800 266.857,240.528 266.516,240.621 266.365 C 240.715 266.214,240.388 265.960,239.896 265.799 C 238.016 265.187,236.400 264.326,236.400 263.936 C 236.400 263.751,235.871 263.600,235.224 263.600 C 234.577 263.600,233.936 263.420,233.800 263.200 C 233.664 262.980,233.124 262.800,232.600 262.800 C 232.076 262.800,231.553 262.648,231.438 262.461 C 231.323 262.275,230.693 262.107,230.039 262.089 C 229.385 262.070,228.468 261.851,228.002 261.601 C 227.521 261.344,226.621 261.264,225.927 261.416 C 225.098 261.598,224.595 261.515,224.374 261.159 C 223.928 260.436,214.098 260.305,212.792 261.004 M225.898 279.407 C 237.945 284.973,240.307 303.140,229.932 310.437 C 229.199 310.952,228.367 311.600,228.081 311.877 C 227.588 312.355,225.941 313.173,224.200 313.804 C 220.766 315.049,214.954 315.064,211.800 313.837 C 202.431 310.192,196.747 299.146,199.946 290.800 C 204.230 279.621,215.579 274.639,225.898 279.407 " stroke="none" fill="#39d2c0" fill-rule="evenodd"></path><path id="path1" d="M213.732 44.428 C 213.532 44.628,212.246 44.818,210.875 44.849 C 209.504 44.880,208.286 45.061,208.168 45.252 C 208.049 45.444,207.333 45.600,206.576 45.600 C 205.819 45.600,205.200 45.780,205.200 46.000 C 205.200 46.220,204.581 46.400,203.824 46.400 C 203.067 46.400,202.336 46.580,202.200 46.800 C 202.064 47.020,201.603 47.200,201.176 47.200 C 200.749 47.200,200.400 47.380,200.400 47.600 C 200.400 47.820,199.860 48.000,199.200 48.000 C 198.540 48.000,198.000 48.136,198.000 48.302 C 198.000 48.629,195.803 49.697,195.348 49.592 C 195.196 49.557,194.910 49.818,194.711 50.173 C 194.513 50.527,194.182 50.712,193.975 50.585 C 193.769 50.457,193.600 50.543,193.600 50.776 C 193.600 51.009,193.330 51.200,193.000 51.200 C 192.670 51.200,192.400 51.380,192.400 51.600 C 192.400 51.820,192.170 52.000,191.888 52.000 C 191.607 52.000,191.117 52.360,190.800 52.800 C 190.483 53.240,190.008 53.600,189.745 53.600 C 189.065 53.600,180.000 62.199,180.000 62.844 C 180.000 63.044,179.464 63.769,178.808 64.455 C 178.152 65.141,177.714 65.860,177.833 66.054 C 177.953 66.247,177.769 66.514,177.425 66.646 C 177.081 66.778,176.800 67.226,176.800 67.643 C 176.800 68.059,176.655 68.400,176.477 68.400 C 176.121 68.400,174.800 71.189,174.800 71.940 C 174.800 72.199,174.620 72.768,174.400 73.205 C 174.180 73.642,173.820 74.358,173.600 74.795 C 173.380 75.232,173.200 75.862,173.200 76.195 C 173.200 76.528,173.039 76.800,172.842 76.800 C 172.506 76.800,172.303 77.748,171.747 81.899 C 171.622 82.833,171.371 83.505,171.189 83.393 C 171.007 83.280,170.839 87.044,170.816 91.757 C 170.790 97.022,170.925 100.378,171.166 100.462 C 171.381 100.538,171.600 101.455,171.653 102.500 C 171.706 103.545,171.896 104.400,172.075 104.400 C 172.254 104.400,172.400 104.940,172.400 105.600 C 172.400 106.260,172.580 106.800,172.800 106.800 C 173.020 106.800,173.200 107.235,173.200 107.767 C 173.200 108.298,173.363 108.793,173.562 108.867 C 173.761 108.940,173.986 109.447,174.062 109.994 C 174.138 110.541,174.798 111.621,175.529 112.394 C 177.340 114.310,182.062 121.576,181.786 122.023 C 181.305 122.801,185.365 127.600,186.503 127.600 C 186.710 127.600,187.407 128.165,188.051 128.855 C 189.674 130.592,189.694 130.525,190.029 122.101 C 190.465 111.131,192.787 107.424,200.828 104.856 C 203.556 103.985,233.780 104.242,236.285 105.158 C 239.509 106.337,242.974 109.330,244.259 112.048 C 247.656 119.233,249.859 123.466,250.779 124.575 C 251.326 125.233,252.800 125.441,252.800 124.859 C 252.800 124.672,253.331 123.963,253.979 123.284 C 255.286 121.917,257.500 118.799,258.371 117.100 C 258.681 116.495,259.085 116.000,259.268 116.000 C 259.450 116.000,259.600 115.640,259.600 115.200 C 259.600 114.760,259.780 114.400,260.000 114.400 C 260.220 114.400,260.400 114.166,260.400 113.880 C 260.400 113.144,261.341 111.207,261.700 111.203 C 261.865 111.201,262.000 110.660,262.000 110.000 C 262.000 109.340,262.180 108.800,262.400 108.800 C 262.620 108.800,262.800 108.350,262.800 107.800 C 262.800 107.250,262.980 106.800,263.200 106.800 C 263.420 106.800,263.600 106.271,263.600 105.624 C 263.600 104.977,263.780 104.336,264.000 104.200 C 264.220 104.064,264.400 103.153,264.400 102.176 C 264.400 101.199,264.580 100.400,264.800 100.400 C 265.054 100.400,265.200 97.341,265.200 92.024 C 265.200 86.871,265.046 83.552,264.800 83.400 C 264.580 83.264,264.400 82.443,264.400 81.576 C 264.400 80.709,264.220 80.000,264.000 80.000 C 263.780 80.000,263.600 79.381,263.600 78.624 C 263.600 77.867,263.420 77.136,263.200 77.000 C 262.980 76.864,262.800 76.313,262.800 75.776 C 262.800 75.239,262.620 74.800,262.400 74.800 C 262.180 74.800,262.000 74.440,262.000 74.000 C 262.000 73.560,261.820 73.200,261.600 73.200 C 261.380 73.200,261.200 72.840,261.200 72.400 C 261.200 71.960,261.020 71.600,260.800 71.600 C 260.580 71.600,260.400 71.366,260.400 71.080 C 260.400 70.344,259.459 68.407,259.100 68.403 C 258.935 68.401,258.800 68.040,258.800 67.600 C 258.800 67.160,258.620 66.800,258.400 66.800 C 258.180 66.800,258.000 66.519,258.000 66.176 C 258.000 65.833,257.822 65.663,257.605 65.797 C 257.378 65.937,257.311 65.777,257.446 65.424 C 257.585 65.061,257.420 64.706,257.044 64.561 C 256.692 64.427,256.504 64.155,256.626 63.958 C 256.748 63.761,256.657 63.600,256.424 63.600 C 256.191 63.600,256.000 63.374,256.000 63.098 C 256.000 62.562,254.854 61.348,249.859 56.591 C 248.131 54.946,246.506 53.600,246.247 53.600 C 245.988 53.600,245.517 53.240,245.200 52.800 C 244.883 52.360,244.303 52.000,243.912 52.000 C 243.520 52.000,243.200 51.850,243.200 51.668 C 243.200 51.485,242.705 51.080,242.100 50.768 C 241.495 50.456,240.910 50.111,240.800 50.001 C 240.268 49.467,237.038 48.000,236.396 48.000 C 235.995 48.000,235.607 47.831,235.533 47.625 C 235.460 47.418,234.912 47.185,234.315 47.106 C 233.718 47.028,233.103 46.837,232.948 46.682 C 232.793 46.527,232.247 46.400,231.733 46.400 C 231.220 46.400,230.800 46.220,230.800 46.000 C 230.800 45.780,229.979 45.600,228.976 45.600 C 227.863 45.600,227.249 45.444,227.400 45.200 C 227.555 44.949,226.679 44.800,225.047 44.800 C 223.617 44.800,222.345 44.634,222.220 44.432 C 221.925 43.954,214.209 43.951,213.732 44.428 M222.772 62.056 C 241.521 68.037,240.853 93.254,221.813 98.213 C 217.776 99.265,213.660 98.740,209.800 96.680 C 209.360 96.445,208.550 96.021,208.000 95.739 C 199.678 91.461,196.791 78.036,202.418 69.788 C 206.874 63.255,215.847 59.847,222.772 62.056 M71.559 141.721 C 71.736 141.897,73.033 141.985,74.441 141.916 L 77.000 141.791 74.118 141.595 C 72.533 141.488,71.381 141.544,71.559 141.721 M63.491 141.889 C 64.201 141.977,65.461 141.979,66.291 141.892 C 67.121 141.805,66.540 141.733,65.000 141.731 C 63.460 141.729,62.781 141.800,63.491 141.889 M49.111 216.012 C 42.227 217.172,36.412 223.547,35.258 231.200 C 34.462 236.480,34.581 247.310,35.440 247.796 C 35.834 248.018,36.515 248.515,36.954 248.900 C 37.392 249.285,37.972 249.600,38.242 249.600 C 38.512 249.600,38.793 249.742,38.867 249.915 C 39.172 250.635,46.246 254.396,47.300 254.398 C 47.685 254.399,48.000 254.558,48.000 254.750 C 48.000 254.943,49.080 255.340,50.400 255.633 C 51.720 255.925,52.800 256.308,52.800 256.483 C 52.800 256.657,53.400 256.800,54.133 256.800 C 54.867 256.800,55.591 256.925,55.744 257.077 C 55.896 257.229,56.421 257.406,56.910 257.470 C 57.400 257.534,58.880 257.763,60.200 257.978 C 66.436 258.996,82.043 258.498,83.800 257.224 C 84.020 257.065,85.280 256.695,86.600 256.403 C 87.920 256.110,89.171 255.720,89.380 255.536 C 89.589 255.351,90.084 255.200,90.480 255.200 C 90.876 255.200,91.200 255.020,91.200 254.800 C 91.200 254.580,91.650 254.400,92.200 254.400 C 92.750 254.400,93.200 254.220,93.200 254.000 C 93.200 253.780,93.560 253.600,94.000 253.600 C 94.440 253.600,94.800 253.420,94.800 253.200 C 94.800 252.980,95.160 252.800,95.600 252.800 C 96.040 252.800,96.400 252.620,96.400 252.400 C 96.400 252.180,96.760 252.000,97.200 252.000 C 97.640 252.000,98.000 251.862,98.000 251.694 C 98.000 251.526,98.696 251.087,99.547 250.718 C 100.399 250.350,101.344 249.812,101.647 249.524 C 101.951 249.236,102.650 248.769,103.200 248.486 L 104.200 247.972 104.087 238.886 C 103.903 224.120,100.084 217.912,90.009 216.002 C 87.508 215.527,51.935 215.537,49.111 216.012 M201.531 321.748 C 200.503 321.996,199.528 322.335,199.364 322.500 C 199.201 322.665,198.751 322.800,198.366 322.800 C 197.292 322.800,193.462 326.520,192.530 328.467 C 190.875 331.926,190.800 332.390,190.800 339.157 C 190.800 346.573,190.702 346.270,193.600 347.841 C 194.370 348.258,195.090 348.690,195.200 348.800 C 195.678 349.278,197.239 350.000,197.795 350.000 C 198.128 350.000,198.400 350.180,198.400 350.400 C 198.400 350.620,198.760 350.800,199.200 350.800 C 199.640 350.800,200.000 350.980,200.000 351.200 C 200.000 351.420,200.439 351.600,200.976 351.600 C 201.513 351.600,202.064 351.780,202.200 352.000 C 202.336 352.220,202.892 352.400,203.436 352.400 C 203.980 352.400,204.515 352.633,204.624 352.918 C 204.752 353.252,205.317 353.379,206.211 353.275 C 207.237 353.155,207.600 353.265,207.600 353.698 C 207.600 354.158,208.024 354.242,209.598 354.091 C 210.889 353.967,211.813 354.079,212.210 354.409 C 213.128 355.170,223.600 355.210,223.600 354.452 C 223.600 354.030,224.147 353.943,225.975 354.076 C 227.514 354.187,228.323 354.098,228.275 353.824 C 228.234 353.591,228.830 353.400,229.600 353.400 C 230.370 353.400,231.144 353.175,231.320 352.900 C 231.496 352.625,231.993 352.400,232.425 352.400 C 232.857 352.400,233.568 352.220,234.005 352.000 C 234.442 351.780,235.158 351.420,235.595 351.200 C 236.032 350.980,236.662 350.800,236.995 350.800 C 237.328 350.800,237.600 350.620,237.600 350.400 C 237.600 350.180,237.960 350.000,238.400 350.000 C 238.840 350.000,239.200 349.801,239.200 349.557 C 239.200 349.314,239.455 349.212,239.767 349.332 C 240.079 349.452,240.440 349.272,240.570 348.933 C 240.703 348.587,241.068 348.417,241.403 348.546 C 241.732 348.672,242.000 348.597,242.000 348.379 C 242.000 348.161,242.495 347.764,243.100 347.496 C 243.705 347.229,244.419 346.738,244.687 346.405 C 245.332 345.605,245.379 333.619,244.745 331.628 C 243.014 326.189,239.270 322.814,233.669 321.645 C 230.790 321.044,204.086 321.129,201.531 321.748 " stroke="none" fill="#013a63" fill-rule="evenodd"></path><path id="path2" d="M214.139 62.168 C 206.806 63.947,199.899 71.261,200.023 77.115 C 200.037 77.752,200.330 77.112,200.733 75.568 C 203.942 63.275,218.580 58.125,228.600 65.763 C 237.795 72.772,237.978 86.867,228.965 93.956 C 228.367 94.426,227.990 94.923,228.127 95.060 C 228.588 95.522,232.990 90.566,234.067 88.373 C 240.873 74.516,228.782 58.616,214.139 62.168 M199.693 80.000 C 199.693 80.770,199.775 81.085,199.876 80.700 C 199.976 80.315,199.976 79.685,199.876 79.300 C 199.775 78.915,199.693 79.230,199.693 80.000 M200.023 82.885 C 199.952 86.221,203.447 92.041,207.000 94.501 C 207.660 94.958,207.189 94.357,205.953 93.166 C 203.228 90.540,201.630 87.860,200.726 84.400 C 200.324 82.862,200.037 82.243,200.023 82.885 M208.400 95.396 C 208.400 95.670,210.849 96.884,211.032 96.701 C 211.119 96.614,210.562 96.244,209.795 95.878 C 209.028 95.512,208.400 95.295,208.400 95.396 M225.870 95.879 C 225.248 96.205,224.826 96.560,224.933 96.666 C 225.142 96.876,227.600 95.700,227.600 95.390 C 227.600 95.092,227.094 95.235,225.870 95.879 M212.000 97.200 C 212.330 97.413,212.870 97.588,213.200 97.588 C 213.733 97.588,213.733 97.545,213.200 97.200 C 212.870 96.987,212.330 96.812,212.000 96.812 C 211.467 96.812,211.467 96.855,212.000 97.200 M222.800 97.200 C 222.267 97.545,222.267 97.588,222.800 97.588 C 223.130 97.588,223.670 97.413,224.000 97.200 C 224.533 96.855,224.533 96.812,224.000 96.812 C 223.670 96.812,223.130 96.987,222.800 97.200 M215.000 98.000 C 216.579 98.402,219.546 98.402,220.800 98.000 C 221.440 97.795,220.359 97.682,217.800 97.687 C 215.165 97.692,214.210 97.799,215.000 98.000 M231.200 105.076 C 225.371 107.143,222.800 110.430,222.800 115.815 C 222.800 119.090,222.892 119.303,229.374 130.994 C 230.836 133.631,231.990 136.151,231.937 136.594 C 231.851 137.323,233.024 140.310,233.589 140.800 C 233.716 140.910,234.265 141.855,234.809 142.900 C 235.353 143.945,235.934 144.800,236.099 144.800 C 236.265 144.800,236.400 145.160,236.400 145.600 C 236.400 146.040,236.580 146.400,236.800 146.400 C 237.020 146.400,237.200 146.760,237.200 147.200 C 237.200 147.640,237.346 148.000,237.525 148.000 C 237.704 148.000,238.098 148.630,238.400 149.400 C 238.702 150.170,239.096 150.800,239.275 150.800 C 239.454 150.800,239.600 151.070,239.600 151.400 C 239.600 151.730,239.780 152.000,240.000 152.000 C 240.220 152.000,240.400 152.345,240.400 152.767 C 240.400 153.188,240.537 153.593,240.704 153.667 C 240.871 153.740,241.718 155.240,242.584 157.000 C 243.451 158.760,244.259 160.290,244.380 160.400 C 244.600 160.600,246.972 164.999,247.775 166.697 C 248.009 167.190,248.335 167.595,248.500 167.597 C 248.665 167.599,248.800 167.960,248.800 168.400 C 248.800 168.840,248.936 169.200,249.102 169.200 C 249.269 169.200,249.659 169.785,249.970 170.500 C 250.281 171.215,250.640 171.890,250.768 172.000 C 251.154 172.333,252.434 174.553,252.671 175.300 C 252.793 175.685,253.052 176.000,253.247 176.000 C 253.441 176.000,253.600 176.360,253.600 176.800 C 253.600 177.240,253.780 177.600,254.000 177.600 C 254.220 177.600,254.400 177.945,254.400 178.367 C 254.400 178.788,254.535 179.193,254.700 179.267 C 255.076 179.434,256.375 181.564,256.671 182.500 C 256.793 182.885,257.052 183.200,257.247 183.200 C 257.441 183.200,257.600 183.560,257.600 184.000 C 257.600 184.440,257.780 184.800,258.000 184.800 C 258.220 184.800,258.400 185.145,258.400 185.567 C 258.400 185.988,258.535 186.393,258.700 186.467 C 258.865 186.540,259.540 187.722,260.200 189.093 C 260.860 190.465,261.535 191.590,261.700 191.593 C 261.865 191.597,262.000 191.960,262.000 192.400 C 262.000 192.840,262.151 193.200,262.336 193.200 C 262.520 193.200,262.873 193.641,263.118 194.181 C 263.645 195.336,263.075 195.232,260.940 193.785 C 260.247 193.315,259.122 192.699,258.440 192.417 C 257.758 192.134,257.200 191.745,257.200 191.551 C 257.200 191.358,257.007 191.200,256.772 191.200 C 256.537 191.200,255.559 190.660,254.600 190.000 C 253.641 189.340,252.663 188.800,252.428 188.800 C 252.193 188.800,252.000 188.620,252.000 188.400 C 252.000 188.180,251.730 188.000,251.400 188.000 C 251.070 188.000,250.800 187.820,250.800 187.600 C 250.800 187.380,250.530 187.200,250.200 187.200 C 249.870 187.200,249.600 187.020,249.600 186.800 C 249.600 186.580,249.322 186.400,248.983 186.400 C 248.644 186.400,247.980 186.040,247.508 185.600 C 247.036 185.160,246.413 184.800,246.125 184.800 C 245.836 184.800,245.600 184.620,245.600 184.400 C 245.600 184.180,245.280 184.000,244.888 184.000 C 244.497 184.000,243.917 183.640,243.600 183.200 C 243.283 182.760,242.703 182.400,242.312 182.400 C 241.920 182.400,241.600 182.220,241.600 182.000 C 241.600 181.780,241.240 181.600,240.800 181.600 C 240.360 181.600,240.000 181.438,240.000 181.240 C 240.000 180.603,235.507 180.186,233.200 180.610 C 230.082 181.183,225.600 184.639,225.600 186.472 C 225.600 186.872,225.420 187.200,225.200 187.200 C 224.980 187.200,224.800 187.909,224.800 188.776 C 224.800 189.643,224.620 190.464,224.400 190.600 C 224.180 190.736,224.000 191.276,224.000 191.800 C 224.000 192.324,224.180 192.864,224.400 193.000 C 224.620 193.136,224.800 193.957,224.800 194.824 C 224.800 195.691,224.980 196.400,225.200 196.400 C 225.420 196.400,225.600 196.722,225.600 197.116 C 225.600 198.722,238.683 208.800,240.769 208.800 C 241.006 208.800,241.200 208.980,241.200 209.200 C 241.200 209.420,241.470 209.600,241.800 209.600 C 242.130 209.600,242.400 209.780,242.400 210.000 C 242.400 210.220,242.670 210.400,243.000 210.400 C 243.330 210.400,243.600 210.580,243.600 210.800 C 243.600 211.020,243.870 211.200,244.200 211.200 C 244.530 211.200,244.800 211.350,244.800 211.532 C 244.800 211.715,245.295 212.119,245.900 212.430 C 246.505 212.740,247.291 213.311,247.647 213.697 C 248.003 214.084,248.588 214.400,248.947 214.400 C 249.306 214.400,249.600 214.550,249.600 214.732 C 249.600 214.915,250.095 215.320,250.700 215.632 C 251.305 215.945,252.149 216.515,252.575 216.900 C 253.002 217.285,253.587 217.600,253.875 217.600 C 254.164 217.600,254.400 217.780,254.400 218.000 C 254.400 218.220,254.720 218.400,255.112 218.400 C 255.503 218.400,256.083 218.760,256.400 219.200 C 256.717 219.640,257.297 220.000,257.688 220.000 C 258.080 220.000,258.400 220.150,258.400 220.332 C 258.400 220.515,258.895 220.920,259.500 221.232 C 260.105 221.544,260.690 221.889,260.800 221.999 C 261.011 222.211,262.426 223.014,265.157 224.472 C 266.061 224.954,266.800 225.495,266.800 225.674 C 266.800 225.853,267.160 226.000,267.600 226.000 C 268.040 226.000,268.400 226.180,268.400 226.400 C 268.400 226.620,268.760 226.800,269.200 226.800 C 269.640 226.800,270.000 226.980,270.000 227.200 C 270.000 227.420,270.236 227.600,270.525 227.600 C 270.813 227.600,271.436 227.960,271.908 228.400 C 272.380 228.840,273.044 229.200,273.383 229.200 C 273.722 229.200,274.000 229.380,274.000 229.600 C 274.000 229.820,274.360 230.000,274.800 230.000 C 275.240 230.000,275.600 230.146,275.600 230.325 C 275.600 230.504,276.230 230.898,277.000 231.200 C 277.770 231.502,278.400 231.896,278.400 232.075 C 278.400 232.254,278.760 232.400,279.200 232.400 C 279.640 232.400,280.000 232.580,280.000 232.800 C 280.000 233.020,280.360 233.200,280.800 233.200 C 281.240 233.200,281.600 233.380,281.600 233.600 C 281.600 233.820,281.960 234.000,282.400 234.000 C 282.840 234.000,283.200 234.180,283.200 234.400 C 283.200 234.620,283.472 234.800,283.805 234.800 C 284.138 234.800,284.723 234.959,285.105 235.153 C 285.487 235.348,286.340 235.729,287.000 236.000 C 287.660 236.271,288.513 236.652,288.895 236.847 C 289.277 237.041,290.031 237.200,290.571 237.200 C 291.111 237.200,291.664 237.380,291.800 237.600 C 291.936 237.820,292.746 238.000,293.601 238.000 C 294.903 238.000,295.270 238.194,295.864 239.200 C 296.254 239.860,296.882 240.400,297.261 240.400 C 297.885 240.400,300.752 245.162,304.780 252.889 C 306.029 255.285,306.051 255.292,310.268 254.425 C 326.210 251.148,346.073 240.369,357.841 228.607 C 361.772 224.679,362.141 224.078,361.431 222.768 C 361.143 222.236,360.371 220.810,359.715 219.600 C 359.060 218.390,358.109 216.680,357.603 215.800 C 354.505 210.416,354.278 209.887,354.747 209.136 C 355.033 208.678,355.054 208.400,354.803 208.400 C 354.582 208.400,354.400 208.040,354.400 207.600 C 354.400 207.160,354.203 206.800,353.961 206.800 C 353.667 206.800,353.605 206.108,353.771 204.700 C 353.908 203.545,354.208 200.980,354.438 199.000 C 355.064 193.620,355.321 181.161,354.818 180.658 C 354.588 180.428,354.400 179.834,354.400 179.339 C 354.400 178.843,354.198 177.934,353.950 177.319 C 353.703 176.703,353.322 175.750,353.104 175.200 C 352.885 174.650,352.548 173.887,352.353 173.505 C 352.159 173.123,352.000 172.538,352.000 172.205 C 352.000 171.872,351.865 171.597,351.700 171.594 C 351.535 171.590,350.960 170.690,350.421 169.594 C 349.883 168.497,349.298 167.600,349.121 167.600 C 348.945 167.600,348.800 167.240,348.800 166.800 C 348.800 166.360,348.620 166.000,348.400 166.000 C 348.180 166.000,348.000 165.640,348.000 165.200 C 348.000 164.760,347.854 164.400,347.675 164.400 C 347.496 164.400,347.102 163.770,346.800 163.000 C 346.498 162.230,346.104 161.600,345.925 161.600 C 345.746 161.600,345.600 161.364,345.600 161.075 C 345.600 160.787,345.240 160.164,344.800 159.692 C 344.360 159.220,344.000 158.556,344.000 158.217 C 344.000 157.878,343.820 157.600,343.600 157.600 C 343.380 157.600,343.200 157.240,343.200 156.800 C 343.200 156.360,343.020 156.000,342.800 156.000 C 342.580 156.000,342.400 155.655,342.400 155.233 C 342.400 154.812,342.257 154.407,342.082 154.333 C 341.907 154.260,340.890 152.490,339.823 150.400 C 338.756 148.310,337.578 146.150,337.204 145.600 C 336.831 145.050,336.273 144.015,335.965 143.300 C 335.657 142.585,335.269 142.000,335.102 142.000 C 334.936 142.000,334.800 141.640,334.800 141.200 C 334.800 140.760,334.620 140.400,334.400 140.400 C 334.180 140.400,334.000 140.164,334.000 139.875 C 334.000 139.587,333.640 138.964,333.200 138.492 C 332.760 138.020,332.400 137.356,332.400 137.017 C 332.400 136.678,332.220 136.400,332.000 136.400 C 331.780 136.400,331.600 136.040,331.600 135.600 C 331.600 135.160,331.420 134.800,331.200 134.800 C 330.980 134.800,330.800 134.440,330.800 134.000 C 330.800 133.560,330.641 133.200,330.447 133.200 C 330.252 133.200,329.993 132.885,329.871 132.500 C 329.634 131.753,328.354 129.533,327.968 129.200 C 327.840 129.090,327.481 128.415,327.170 127.700 C 326.859 126.985,326.469 126.400,326.302 126.400 C 326.136 126.400,326.000 126.040,326.000 125.600 C 326.000 125.160,325.820 124.800,325.600 124.800 C 325.380 124.800,325.200 124.518,325.200 124.174 C 325.200 123.246,320.992 119.200,320.026 119.200 C 319.572 119.200,319.200 119.020,319.200 118.800 C 319.200 118.209,311.587 118.294,310.283 118.900 C 309.691 119.175,309.205 119.535,309.203 119.700 C 309.201 119.865,308.909 120.000,308.554 120.000 C 307.807 120.000,305.200 122.703,305.200 123.478 C 305.200 123.765,305.020 124.000,304.800 124.000 C 304.580 124.000,304.400 124.540,304.400 125.200 C 304.400 125.860,304.220 126.400,304.000 126.400 C 303.780 126.400,303.599 126.985,303.598 127.700 L 303.596 129.000 302.453 127.800 C 300.617 125.873,299.238 124.800,298.597 124.800 C 298.269 124.800,298.000 124.620,298.000 124.400 C 298.000 124.180,297.471 124.000,296.824 124.000 C 296.177 124.000,295.536 123.820,295.400 123.600 C 295.264 123.380,294.274 123.200,293.200 123.200 C 292.126 123.200,291.136 123.380,291.000 123.600 C 290.864 123.820,290.133 124.000,289.376 124.000 C 288.619 124.000,288.000 124.180,288.000 124.400 C 288.000 124.620,287.755 124.800,287.456 124.800 C 286.668 124.800,283.467 127.991,282.840 129.400 C 282.547 130.060,282.148 130.913,281.953 131.295 C 281.759 131.677,281.600 132.442,281.600 132.995 C 281.600 133.548,281.420 134.000,281.200 134.000 C 280.980 134.000,280.800 133.640,280.800 133.200 C 280.800 132.760,280.620 132.400,280.400 132.400 C 280.180 132.400,280.000 132.151,280.000 131.846 C 280.000 131.157,277.209 128.400,276.512 128.400 C 276.230 128.400,276.000 128.220,276.000 128.000 C 276.000 127.780,275.676 127.600,275.280 127.600 C 274.884 127.600,274.344 127.384,274.080 127.120 C 273.346 126.386,267.326 126.551,265.491 127.356 C 262.115 128.837,259.270 132.487,258.957 135.737 C 258.731 138.085,258.617 138.007,256.623 134.142 C 253.894 128.853,252.634 126.615,252.300 126.467 C 252.135 126.393,252.000 126.121,252.000 125.862 C 252.000 125.602,251.616 125.212,251.148 124.995 C 250.244 124.576,249.751 123.772,245.796 116.262 C 242.655 110.298,241.256 108.313,239.266 106.996 C 236.895 105.427,232.894 104.475,231.200 105.076 M65.800 163.056 C 48.171 165.859,41.071 188.283,53.776 201.035 C 56.500 203.770,62.389 207.345,63.061 206.672 C 63.200 206.533,62.974 206.309,62.557 206.176 C 47.451 201.325,42.647 181.638,53.748 170.078 C 65.141 158.213,85.513 162.683,90.571 178.157 C 90.707 178.574,90.933 178.800,91.072 178.661 C 91.212 178.522,90.639 177.011,89.800 175.304 C 85.558 166.673,75.461 161.521,65.800 163.056 M91.253 180.400 C 91.231 181.170,91.387 182.070,91.600 182.400 C 92.077 183.139,92.077 182.076,91.600 180.200 L 91.295 179.000 91.253 180.400 M91.489 188.400 C 91.336 188.950,91.225 189.850,91.242 190.400 C 91.268 191.261,91.326 191.214,91.658 190.060 C 91.870 189.324,91.981 188.424,91.906 188.060 C 91.808 187.594,91.686 187.693,91.489 188.400 M90.550 192.300 C 89.516 195.517,88.063 197.958,85.643 200.539 C 83.794 202.511,80.251 204.932,78.200 205.624 C 76.398 206.232,75.208 207.062,76.800 206.600 C 82.729 204.882,89.179 198.469,90.982 192.500 C 91.299 191.451,90.884 191.259,90.550 192.300 M64.600 207.200 C 65.260 207.368,66.160 207.514,66.600 207.525 L 67.400 207.544 66.600 207.200 C 66.160 207.011,65.260 206.865,64.600 206.875 L 63.400 206.895 64.600 207.200 M72.600 207.200 C 71.506 207.670,73.333 207.670,74.800 207.200 C 75.775 206.888,75.770 206.879,74.600 206.868 C 73.940 206.862,73.040 207.011,72.600 207.200 " stroke="none" fill="#fbcbbb" fill-rule="evenodd"></path><path id="path3" d="M173.900 112.672 C 173.515 112.774,173.200 113.025,173.200 113.229 C 173.200 113.433,172.964 113.600,172.675 113.600 C 172.387 113.600,171.764 113.960,171.292 114.400 C 170.820 114.840,170.196 115.200,169.905 115.200 C 169.614 115.200,169.117 115.560,168.800 116.000 C 168.483 116.440,167.943 116.800,167.600 116.800 C 167.257 116.800,166.717 117.160,166.400 117.600 C 166.083 118.040,165.586 118.400,165.295 118.400 C 165.004 118.400,164.380 118.760,163.908 119.200 C 163.436 119.640,162.813 120.000,162.525 120.000 C 162.236 120.000,162.000 120.180,162.000 120.400 C 162.000 120.620,161.730 120.800,161.400 120.800 C 161.070 120.800,160.800 120.980,160.800 121.200 C 160.800 121.420,160.530 121.600,160.200 121.600 C 159.870 121.600,159.600 121.780,159.600 122.000 C 159.600 122.220,159.370 122.400,159.088 122.400 C 158.807 122.400,158.317 122.760,158.000 123.200 C 157.683 123.640,157.103 124.000,156.712 124.000 C 156.320 124.000,156.000 124.141,156.000 124.314 C 156.000 124.486,154.923 125.161,153.607 125.814 C 152.290 126.466,151.210 127.135,151.207 127.300 C 151.203 127.465,150.952 127.600,150.649 127.600 C 150.346 127.600,149.871 127.873,149.594 128.207 C 149.317 128.541,148.485 129.102,147.745 129.453 C 147.005 129.804,146.400 130.251,146.400 130.446 C 146.400 130.641,146.164 130.800,145.875 130.800 C 145.587 130.800,145.002 131.115,144.575 131.500 C 144.149 131.885,143.260 132.469,142.600 132.797 C 141.940 133.126,141.109 133.711,140.753 134.097 C 140.397 134.484,139.852 134.800,139.541 134.800 C 139.231 134.800,138.717 135.160,138.400 135.600 C 138.083 136.040,137.543 136.400,137.200 136.400 C 136.857 136.400,136.317 136.760,136.000 137.200 C 135.683 137.640,135.186 138.000,134.895 138.000 C 134.604 138.000,133.980 138.360,133.508 138.800 C 133.036 139.240,132.413 139.600,132.125 139.600 C 131.836 139.600,131.600 139.780,131.600 140.000 C 131.600 140.220,131.364 140.400,131.075 140.400 C 130.787 140.400,130.197 140.715,129.765 141.100 C 129.332 141.485,128.316 142.139,127.508 142.553 C 126.699 142.967,125.676 143.642,125.235 144.053 C 124.794 144.464,124.196 144.800,123.905 144.800 C 123.614 144.800,123.124 145.150,122.815 145.579 C 122.507 146.007,122.122 146.275,121.959 146.175 C 121.797 146.075,121.425 146.219,121.132 146.496 C 120.840 146.773,120.105 147.255,119.500 147.568 C 118.895 147.880,118.400 148.285,118.400 148.468 C 118.400 148.650,118.080 148.800,117.688 148.800 C 117.297 148.800,116.717 149.160,116.400 149.600 C 116.083 150.040,115.543 150.400,115.200 150.400 C 114.857 150.400,114.317 150.760,114.000 151.200 C 113.683 151.640,113.103 152.000,112.712 152.000 C 112.320 152.000,112.000 152.180,112.000 152.400 C 112.000 152.620,111.730 152.800,111.400 152.800 C 111.070 152.800,110.800 152.980,110.800 153.200 C 110.800 153.420,110.530 153.600,110.200 153.600 C 109.870 153.600,109.600 153.780,109.600 154.000 C 109.600 154.220,109.333 154.400,109.008 154.400 C 107.496 154.400,107.841 156.451,109.644 158.183 C 110.610 159.111,112.359 160.889,113.532 162.135 C 115.504 164.230,116.800 164.969,116.800 164.000 C 116.800 163.780,117.160 163.600,117.600 163.600 C 118.040 163.600,118.400 163.420,118.400 163.200 C 118.400 162.980,118.670 162.800,119.000 162.800 C 119.330 162.800,119.600 162.620,119.600 162.400 C 119.600 162.180,119.870 162.000,120.200 162.000 C 120.530 162.000,120.800 161.820,120.800 161.600 C 120.800 161.380,121.036 161.200,121.325 161.200 C 121.613 161.200,122.236 160.840,122.708 160.400 C 123.180 159.960,123.754 159.600,123.983 159.600 C 124.212 159.600,124.400 159.449,124.400 159.265 C 124.400 159.081,125.435 158.412,126.700 157.777 C 127.965 157.143,129.226 156.406,129.502 156.138 C 129.779 155.871,130.364 155.538,130.802 155.399 C 131.241 155.260,131.600 154.978,131.600 154.773 C 131.600 154.568,131.836 154.400,132.125 154.400 C 132.413 154.400,133.036 154.040,133.508 153.600 C 133.980 153.160,134.604 152.800,134.895 152.800 C 135.186 152.800,135.683 152.440,136.000 152.000 C 136.317 151.560,136.805 151.200,137.084 151.200 C 137.363 151.200,137.968 150.885,138.429 150.500 C 138.890 150.115,139.635 149.489,140.085 149.108 C 140.535 148.728,141.088 148.531,141.313 148.670 C 141.549 148.816,141.602 148.727,141.438 148.462 C 141.269 148.188,141.407 148.000,141.776 148.000 C 142.119 148.000,142.400 147.820,142.400 147.600 C 142.400 147.380,142.720 147.200,143.112 147.200 C 143.503 147.200,144.083 146.840,144.400 146.400 C 144.717 145.960,145.257 145.600,145.600 145.600 C 145.943 145.600,146.483 145.240,146.800 144.800 C 147.117 144.360,147.697 144.000,148.088 144.000 C 148.480 144.000,148.800 143.820,148.800 143.600 C 148.800 143.380,149.036 143.200,149.325 143.200 C 149.613 143.200,150.236 142.840,150.708 142.400 C 151.180 141.960,151.822 141.600,152.134 141.600 C 152.447 141.600,152.942 141.311,153.235 140.958 C 153.527 140.605,154.135 140.156,154.584 139.959 C 155.650 139.493,156.765 138.768,157.754 137.900 C 158.192 137.515,158.787 137.200,159.075 137.200 C 159.364 137.200,159.600 137.032,159.600 136.827 C 159.600 136.622,159.959 136.340,160.398 136.201 C 160.836 136.062,161.447 135.696,161.755 135.388 C 162.063 135.080,162.559 134.777,162.857 134.714 C 163.156 134.651,163.670 134.329,164.000 133.997 C 164.330 133.666,165.095 133.140,165.700 132.830 C 166.305 132.519,166.800 132.115,166.800 131.932 C 166.800 131.750,167.120 131.600,167.512 131.600 C 167.903 131.600,168.483 131.240,168.800 130.800 C 169.117 130.360,169.697 130.000,170.088 130.000 C 170.480 130.000,170.800 129.820,170.800 129.600 C 170.800 129.380,171.070 129.200,171.400 129.200 C 171.730 129.200,172.000 129.020,172.000 128.800 C 172.000 128.580,172.270 128.400,172.600 128.400 C 172.930 128.400,173.200 128.220,173.200 128.000 C 173.200 127.780,173.430 127.600,173.712 127.600 C 173.993 127.600,174.483 127.240,174.800 126.800 C 175.117 126.360,175.697 126.000,176.088 126.000 C 176.480 126.000,176.800 125.857,176.800 125.683 C 176.800 125.509,177.872 124.834,179.183 124.183 C 182.143 122.713,182.143 122.694,179.100 118.015 C 177.725 115.901,176.401 113.818,176.157 113.386 C 175.692 112.560,175.063 112.361,173.900 112.672 M115.129 236.164 C 114.838 236.474,113.092 238.262,111.250 240.138 C 107.891 243.556,107.052 245.600,109.008 245.600 C 109.333 245.600,109.600 245.780,109.600 246.000 C 109.600 246.220,109.920 246.400,110.312 246.400 C 110.703 246.400,111.283 246.760,111.600 247.200 C 111.917 247.640,112.457 248.000,112.800 248.000 C 113.143 248.000,113.683 248.360,114.000 248.800 C 114.317 249.240,114.857 249.600,115.200 249.600 C 115.543 249.600,116.083 249.960,116.400 250.400 C 116.717 250.840,117.297 251.200,117.688 251.200 C 118.080 251.200,118.400 251.350,118.400 251.532 C 118.400 251.715,118.895 252.120,119.500 252.432 C 120.105 252.745,120.840 253.227,121.132 253.504 C 121.425 253.781,121.797 253.925,121.959 253.825 C 122.122 253.725,122.507 253.993,122.815 254.421 C 123.124 254.850,123.614 255.200,123.905 255.200 C 124.196 255.200,124.794 255.536,125.235 255.947 C 125.676 256.358,126.699 257.033,127.508 257.447 C 128.316 257.861,129.332 258.515,129.765 258.900 C 130.197 259.285,130.787 259.600,131.075 259.600 C 131.364 259.600,131.600 259.780,131.600 260.000 C 131.600 260.220,131.836 260.400,132.125 260.400 C 132.413 260.400,133.036 260.760,133.508 261.200 C 133.980 261.640,134.604 262.000,134.895 262.000 C 135.186 262.000,135.683 262.360,136.000 262.800 C 136.317 263.240,136.857 263.600,137.200 263.600 C 137.543 263.600,138.083 263.960,138.400 264.400 C 138.717 264.840,139.231 265.200,139.541 265.200 C 139.852 265.200,140.397 265.516,140.753 265.903 C 141.109 266.289,141.940 266.874,142.600 267.203 C 143.260 267.531,144.149 268.115,144.575 268.500 C 145.002 268.885,145.587 269.200,145.875 269.200 C 146.164 269.200,146.400 269.359,146.400 269.554 C 146.400 269.749,147.005 270.196,147.745 270.547 C 148.485 270.898,149.317 271.459,149.594 271.793 C 149.871 272.127,150.346 272.400,150.649 272.400 C 150.952 272.400,151.200 272.535,151.201 272.700 C 151.201 272.865,152.281 273.526,153.601 274.170 C 154.920 274.813,156.000 275.488,156.000 275.670 C 156.000 275.851,156.320 276.000,156.712 276.000 C 157.103 276.000,157.683 276.360,158.000 276.800 C 158.317 277.240,158.807 277.600,159.088 277.600 C 159.370 277.600,159.600 277.780,159.600 278.000 C 159.600 278.220,159.870 278.400,160.200 278.400 C 160.530 278.400,160.800 278.580,160.800 278.800 C 160.800 279.020,161.070 279.200,161.400 279.200 C 161.730 279.200,162.000 279.380,162.000 279.600 C 162.000 279.820,162.320 280.000,162.712 280.000 C 163.103 280.000,163.683 280.360,164.000 280.800 C 164.317 281.240,164.897 281.600,165.288 281.600 C 165.680 281.600,166.000 281.750,166.000 281.932 C 166.000 282.115,166.495 282.519,167.100 282.830 C 167.705 283.140,168.491 283.711,168.847 284.097 C 169.203 284.484,169.788 284.800,170.147 284.800 C 170.506 284.800,170.800 284.980,170.800 285.200 C 170.800 285.420,171.070 285.600,171.400 285.600 C 171.730 285.600,172.000 285.780,172.000 286.000 C 172.000 286.220,172.255 286.400,172.567 286.400 C 172.878 286.400,173.193 286.567,173.267 286.770 C 173.915 288.571,175.940 287.557,177.600 284.600 C 178.341 283.280,179.544 281.409,180.274 280.442 C 182.191 277.901,182.034 277.232,179.183 275.817 C 177.872 275.166,176.800 274.491,176.800 274.317 C 176.800 274.143,176.480 274.000,176.088 274.000 C 175.697 274.000,175.117 273.640,174.800 273.200 C 174.483 272.760,173.993 272.400,173.712 272.400 C 173.430 272.400,173.200 272.220,173.200 272.000 C 173.200 271.780,172.930 271.600,172.600 271.600 C 172.270 271.600,172.000 271.420,172.000 271.200 C 172.000 270.980,171.730 270.800,171.400 270.800 C 171.070 270.800,170.800 270.620,170.800 270.400 C 170.800 270.180,170.564 270.000,170.275 270.000 C 169.987 270.000,169.364 269.640,168.892 269.200 C 168.420 268.760,167.796 268.400,167.505 268.400 C 167.214 268.400,166.717 268.040,166.400 267.600 C 166.083 267.160,165.543 266.800,165.200 266.800 C 164.857 266.800,164.324 266.450,164.015 266.021 C 163.707 265.593,163.330 265.319,163.179 265.413 C 163.027 265.507,162.499 265.232,162.004 264.804 C 161.510 264.375,160.766 263.916,160.352 263.785 C 159.939 263.654,159.600 263.378,159.600 263.173 C 159.600 262.968,159.306 262.800,158.947 262.800 C 158.588 262.800,158.000 262.485,157.641 262.100 C 156.915 261.320,155.814 260.579,154.584 260.041 C 154.135 259.844,153.527 259.395,153.235 259.042 C 152.942 258.689,152.447 258.400,152.134 258.400 C 151.822 258.400,151.180 258.040,150.708 257.600 C 150.236 257.160,149.613 256.800,149.325 256.800 C 149.036 256.800,148.800 256.620,148.800 256.400 C 148.800 256.180,148.480 256.000,148.088 256.000 C 147.697 256.000,147.117 255.640,146.800 255.200 C 146.483 254.760,145.943 254.400,145.600 254.400 C 145.257 254.400,144.717 254.040,144.400 253.600 C 144.083 253.160,143.503 252.800,143.112 252.800 C 142.720 252.800,142.400 252.664,142.400 252.498 C 142.400 252.331,141.859 251.956,141.198 251.663 C 140.536 251.370,140.097 250.966,140.221 250.765 C 140.346 250.564,140.201 250.400,139.899 250.400 C 139.598 250.400,138.964 250.040,138.492 249.600 C 138.020 249.160,137.396 248.800,137.105 248.800 C 136.814 248.800,136.317 248.440,136.000 248.000 C 135.683 247.560,135.186 247.200,134.895 247.200 C 134.604 247.200,133.980 246.840,133.508 246.400 C 133.036 245.960,132.413 245.600,132.125 245.600 C 131.836 245.600,131.600 245.432,131.600 245.227 C 131.600 245.022,131.241 244.740,130.802 244.601 C 130.364 244.462,129.779 244.129,129.502 243.862 C 129.226 243.594,127.965 242.857,126.700 242.223 C 125.435 241.588,124.400 240.919,124.400 240.735 C 124.400 240.551,124.212 240.400,123.983 240.400 C 123.754 240.400,123.180 240.040,122.708 239.600 C 122.236 239.160,121.613 238.800,121.325 238.800 C 121.036 238.800,120.800 238.620,120.800 238.400 C 120.800 238.180,120.530 238.000,120.200 238.000 C 119.870 238.000,119.600 237.820,119.600 237.600 C 119.600 237.380,119.330 237.200,119.000 237.200 C 118.670 237.200,118.399 237.065,118.397 236.900 C 118.387 235.991,115.830 235.416,115.129 236.164 " stroke="none" fill="#000000" fill-rule="evenodd"></path><path id="path4" d="M214.085 62.604 C 193.378 67.657,196.793 97.562,218.081 97.594 C 221.950 97.600,222.589 97.459,226.000 95.849 C 244.384 87.174,233.850 57.782,214.085 62.604 M66.200 163.459 C 50.255 166.010,42.405 184.460,51.541 197.913 C 54.102 201.685,57.638 204.310,63.000 206.421 C 66.132 207.655,73.175 207.648,76.200 206.408 C 76.640 206.228,77.630 205.850,78.400 205.568 C 82.858 203.937,88.328 198.466,89.967 194.000 C 90.249 193.230,90.628 192.240,90.808 191.800 C 92.007 188.874,92.016 181.522,90.824 178.600 C 86.370 167.677,76.762 161.769,66.200 163.459 M211.766 279.347 C 200.542 283.519,196.480 296.898,203.460 306.700 C 204.439 308.075,205.366 309.201,205.520 309.202 C 205.674 309.203,206.340 309.699,207.000 310.304 C 214.795 317.452,229.341 314.034,234.120 303.932 C 240.942 289.512,226.663 273.808,211.766 279.347 " stroke="none" fill="#ffffff" fill-rule="evenodd"></path><path id="path5" d="M201.818 105.147 C 201.167 105.286,206.619 105.338,213.932 105.263 C 228.970 105.108,229.162 105.130,226.951 106.748 C 222.094 110.302,220.724 116.151,223.541 121.300 C 224.234 122.565,225.312 124.545,225.939 125.700 C 226.565 126.855,227.530 128.610,228.084 129.600 C 232.133 136.847,232.117 136.800,230.600 136.800 C 229.978 136.800,229.600 137.027,229.600 137.400 C 229.600 138.213,231.444 138.185,231.757 137.367 C 232.195 136.226,232.028 135.780,229.358 130.965 C 222.901 119.318,222.800 119.086,222.800 115.831 C 222.800 111.025,224.586 108.212,229.043 105.997 L 231.400 104.825 217.200 104.860 C 209.390 104.879,202.468 105.008,201.818 105.147 M196.160 107.541 C 194.598 108.684,192.880 110.400,193.298 110.400 C 193.420 110.400,194.123 109.811,194.860 109.092 C 195.597 108.373,196.650 107.482,197.200 107.113 C 197.750 106.744,198.092 106.433,197.960 106.421 C 197.828 106.409,197.018 106.914,196.160 107.541 M190.489 123.553 L 190.400 130.507 191.500 131.459 C 192.105 131.983,193.095 132.633,193.700 132.903 C 194.305 133.174,194.800 133.531,194.800 133.698 C 194.800 133.864,195.070 134.000,195.400 134.000 C 196.582 134.000,195.949 132.986,194.290 132.221 C 190.833 130.627,190.836 130.635,190.700 123.199 L 190.579 116.600 190.489 123.553 M196.675 133.858 C 196.153 134.380,196.402 134.800,197.233 134.800 C 197.699 134.800,197.997 134.590,197.908 134.325 C 197.713 133.740,197.046 133.488,196.675 133.858 M198.275 134.658 C 197.753 135.180,198.002 135.600,198.833 135.600 C 199.299 135.600,199.597 135.390,199.508 135.125 C 199.313 134.540,198.646 134.288,198.275 134.658 M199.880 135.453 C 199.318 136.015,199.624 136.400,200.633 136.400 C 201.282 136.400,201.605 136.214,201.500 135.900 C 201.308 135.322,200.292 135.041,199.880 135.453 M202.000 136.600 C 202.000 136.933,202.356 137.200,202.800 137.200 C 203.244 137.200,203.600 136.933,203.600 136.600 C 203.600 136.267,203.244 136.000,202.800 136.000 C 202.356 136.000,202.000 136.267,202.000 136.600 M204.400 137.400 C 204.400 137.773,204.778 138.000,205.400 138.000 C 206.022 138.000,206.400 137.773,206.400 137.400 C 206.400 137.027,206.022 136.800,205.400 136.800 C 204.778 136.800,204.400 137.027,204.400 137.400 M207.600 138.200 C 207.600 138.693,207.915 138.820,208.900 138.725 C 209.615 138.656,210.200 138.420,210.200 138.200 C 210.200 137.980,209.615 137.744,208.900 137.675 C 207.915 137.580,207.600 137.707,207.600 138.200 M225.886 137.848 C 225.224 138.510,225.696 138.844,227.100 138.708 C 227.925 138.627,228.600 138.390,228.600 138.181 C 228.600 137.724,226.292 137.441,225.886 137.848 M212.099 138.900 C 212.377 139.735,223.600 139.863,223.600 139.031 C 223.600 138.485,222.811 138.400,217.767 138.400 C 213.278 138.400,211.972 138.515,212.099 138.900 M354.554 209.377 C 354.432 209.694,354.861 210.909,355.507 212.077 C 358.025 216.627,358.489 217.414,358.887 217.800 C 359.260 218.163,358.492 216.670,355.723 211.646 C 355.191 210.682,354.850 209.647,354.965 209.346 C 355.081 209.046,355.085 208.800,354.975 208.800 C 354.865 208.800,354.675 209.059,354.554 209.377 M359.206 218.488 C 359.198 218.879,360.777 221.703,361.282 222.200 C 361.505 222.420,361.315 221.880,360.859 221.000 C 359.869 219.088,359.215 218.093,359.206 218.488 M361.748 223.296 C 362.033 224.181,359.101 227.737,355.397 231.000 C 342.661 242.222,324.976 251.402,310.268 254.425 C 306.241 255.252,305.858 255.188,305.185 253.563 C 304.916 252.914,304.535 252.284,304.339 252.162 C 304.143 252.041,304.382 252.765,304.871 253.771 C 305.977 256.048,306.201 256.063,313.000 254.305 C 321.250 252.173,331.187 248.047,337.917 243.958 C 339.327 243.101,340.560 242.400,340.656 242.400 C 341.931 242.400,354.616 232.654,358.400 228.768 C 362.123 224.944,362.634 224.143,361.956 223.200 C 361.591 222.693,361.559 222.707,361.748 223.296 M298.063 241.600 C 298.551 242.260,299.011 242.800,299.085 242.800 C 299.160 242.800,298.941 242.260,298.600 241.600 C 298.259 240.940,297.799 240.400,297.578 240.400 C 297.357 240.400,297.575 240.940,298.063 241.600 M299.200 243.350 C 299.200 243.641,301.271 247.200,301.441 247.200 C 301.536 247.200,301.157 246.300,300.600 245.200 C 299.731 243.486,299.200 242.783,299.200 243.350 M301.600 247.750 C 301.600 248.126,303.710 251.623,303.852 251.482 C 304.027 251.307,302.035 247.600,301.766 247.600 C 301.675 247.600,301.600 247.667,301.600 247.750 M214.600 277.851 C 208.337 278.796,202.605 283.861,199.946 290.800 C 197.746 296.541,200.299 305.358,205.521 310.053 C 211.172 315.134,218.905 316.212,226.281 312.947 C 226.986 312.635,227.796 312.154,228.081 311.877 C 228.367 311.600,229.199 310.952,229.932 310.437 C 231.911 309.045,234.729 304.926,235.567 302.200 C 239.808 288.401,228.870 275.699,214.600 277.851 M223.504 279.139 C 237.662 283.546,240.228 302.691,227.800 311.193 C 221.813 315.289,211.977 314.868,207.000 310.304 C 206.340 309.699,205.674 309.203,205.520 309.202 C 205.366 309.201,204.439 308.075,203.460 306.700 C 193.395 292.568,206.916 273.977,223.504 279.139 " stroke="none" fill="#000000" fill-rule="evenodd"></path><path id="path6" d="M68.000 141.600 C 67.670 141.813,65.645 141.991,63.500 141.994 C 61.255 141.997,59.600 142.164,59.600 142.387 C 59.600 142.601,59.315 142.665,58.966 142.532 C 58.288 142.271,54.257 143.030,53.105 143.635 C 52.723 143.836,52.059 144.000,51.629 144.000 C 51.199 144.000,50.736 144.180,50.600 144.400 C 50.464 144.620,49.924 144.800,49.400 144.800 C 48.876 144.800,48.336 144.980,48.200 145.200 C 48.064 145.420,47.603 145.600,47.176 145.600 C 46.749 145.600,46.400 145.780,46.400 146.000 C 46.400 146.220,46.155 146.400,45.856 146.400 C 45.089 146.400,40.400 148.864,40.400 149.267 C 40.400 149.450,40.040 149.600,39.600 149.600 C 39.160 149.600,38.800 149.780,38.800 150.000 C 38.800 150.220,38.564 150.400,38.275 150.400 C 37.987 150.400,37.364 150.760,36.892 151.200 C 36.420 151.640,35.873 152.000,35.676 152.000 C 35.479 152.000,34.797 152.497,34.159 153.104 C 33.522 153.712,32.370 154.651,31.600 155.191 C 29.727 156.506,29.189 157.056,29.486 157.352 C 29.622 157.489,29.499 157.600,29.213 157.600 C 28.697 157.600,27.937 158.364,25.478 161.353 C 24.775 162.207,23.795 163.324,23.300 163.835 C 22.805 164.346,22.400 164.907,22.399 165.082 C 22.399 165.257,21.859 166.030,21.200 166.800 C 20.541 167.570,20.001 168.425,20.001 168.700 C 20.000 168.975,19.820 169.200,19.600 169.200 C 19.380 169.200,19.200 169.560,19.200 170.000 C 19.200 170.440,19.039 170.800,18.842 170.800 C 18.463 170.800,16.461 174.775,15.569 177.300 C 15.278 178.125,14.895 178.800,14.720 178.800 C 14.544 178.800,14.400 179.239,14.400 179.776 C 14.400 180.313,14.220 180.864,14.000 181.000 C 13.780 181.136,13.600 181.676,13.600 182.200 C 13.600 182.724,13.420 183.264,13.200 183.400 C 12.980 183.536,12.800 184.231,12.800 184.944 C 12.800 185.657,12.637 186.411,12.439 186.620 C 11.130 187.997,11.130 212.003,12.439 213.380 C 12.637 213.589,12.800 214.343,12.800 215.056 C 12.800 215.769,12.980 216.464,13.200 216.600 C 13.420 216.736,13.600 217.276,13.600 217.800 C 13.600 218.324,13.780 218.864,14.000 219.000 C 14.220 219.136,14.400 219.687,14.400 220.224 C 14.400 220.761,14.580 221.200,14.800 221.200 C 15.020 221.200,15.200 221.472,15.200 221.805 C 15.200 222.138,15.364 222.723,15.565 223.105 C 15.766 223.487,16.410 224.836,16.995 226.102 C 17.581 227.368,18.279 228.628,18.545 228.902 C 18.812 229.176,19.328 230.034,19.691 230.810 C 20.055 231.585,20.813 232.755,21.375 233.410 C 21.938 234.064,22.399 234.753,22.400 234.940 C 22.400 235.126,22.940 235.783,23.600 236.400 C 24.260 237.017,24.800 237.729,24.800 237.984 C 24.800 238.239,24.980 238.336,25.200 238.200 C 25.420 238.064,25.600 238.217,25.600 238.541 C 25.600 238.864,26.154 239.595,26.831 240.164 C 27.508 240.734,27.945 241.200,27.802 241.200 C 27.660 241.200,27.813 241.470,28.143 241.800 C 28.473 242.130,28.946 242.400,29.195 242.400 C 29.444 242.400,29.546 242.564,29.421 242.765 C 29.297 242.966,29.724 243.365,30.369 243.650 C 31.014 243.936,31.455 244.312,31.348 244.485 C 31.240 244.658,31.361 244.800,31.616 244.800 C 31.871 244.800,32.578 245.334,33.187 245.986 C 34.743 247.651,34.798 247.451,34.821 240.033 C 34.868 225.099,39.418 217.632,49.474 215.986 C 52.601 215.473,87.296 215.487,90.009 216.002 C 99.789 217.856,103.996 224.324,104.005 237.515 C 104.011 245.424,104.170 247.200,104.870 247.200 C 105.078 247.200,105.136 247.020,105.000 246.800 C 104.864 246.580,104.988 246.394,105.276 246.387 C 106.018 246.369,108.000 244.548,108.000 243.884 C 108.000 243.579,108.765 242.605,109.700 241.719 C 110.635 240.833,112.359 239.093,113.532 237.854 C 114.705 236.614,115.843 235.600,116.061 235.600 C 116.588 235.600,117.274 234.844,117.968 233.500 C 118.280 232.895,118.685 232.400,118.868 232.400 C 119.050 232.400,119.200 232.122,119.200 231.783 C 119.200 231.444,119.560 230.780,120.000 230.308 C 120.440 229.836,120.800 229.213,120.800 228.925 C 120.800 228.636,120.980 228.400,121.200 228.400 C 121.420 228.400,121.600 228.040,121.600 227.600 C 121.600 227.160,121.780 226.800,122.000 226.800 C 122.220 226.800,122.400 226.440,122.400 226.000 C 122.400 225.560,122.580 225.200,122.800 225.200 C 123.020 225.200,123.200 224.951,123.200 224.646 C 123.200 224.341,123.469 223.576,123.798 222.946 C 124.126 222.316,124.396 221.496,124.398 221.124 C 124.399 220.752,124.580 220.336,124.800 220.200 C 125.020 220.064,125.200 219.423,125.200 218.776 C 125.200 218.129,125.380 217.600,125.600 217.600 C 125.820 217.600,126.000 216.880,126.000 216.000 C 126.000 215.120,126.180 214.400,126.400 214.400 C 126.620 214.400,126.800 213.579,126.800 212.576 C 126.800 211.573,126.954 210.848,127.142 210.964 C 127.330 211.080,127.520 209.786,127.563 208.088 C 127.607 206.389,127.813 204.940,128.022 204.867 C 128.539 204.684,128.518 195.200,128.000 195.200 C 127.769 195.200,127.600 193.941,127.600 192.224 C 127.600 190.587,127.420 189.136,127.200 189.000 C 126.980 188.864,126.800 188.043,126.800 187.176 C 126.800 186.309,126.620 185.600,126.400 185.600 C 126.180 185.600,126.000 184.880,126.000 184.000 C 126.000 183.120,125.820 182.400,125.600 182.400 C 125.380 182.400,125.200 181.871,125.200 181.224 C 125.200 180.577,125.020 179.936,124.800 179.800 C 124.580 179.664,124.399 179.248,124.398 178.876 C 124.396 178.504,124.126 177.684,123.798 177.054 C 123.469 176.424,123.200 175.659,123.200 175.354 C 123.200 175.049,123.020 174.800,122.800 174.800 C 122.580 174.800,122.400 174.440,122.400 174.000 C 122.400 173.560,122.220 173.200,122.000 173.200 C 121.780 173.200,121.600 172.840,121.600 172.400 C 121.600 171.960,121.420 171.600,121.200 171.600 C 120.980 171.600,120.800 171.392,120.800 171.138 C 120.800 170.884,120.341 170.074,119.780 169.338 C 119.218 168.602,118.886 168.000,119.041 168.000 C 119.196 168.000,118.935 167.664,118.461 167.253 C 117.988 166.842,117.600 166.289,117.600 166.025 C 117.600 165.443,116.612 164.400,116.061 164.400 C 115.843 164.400,114.705 163.378,113.532 162.130 C 112.359 160.881,110.635 159.137,109.700 158.254 C 108.765 157.371,108.000 156.389,108.000 156.071 C 108.000 155.388,106.030 153.601,105.276 153.600 C 104.988 153.600,104.842 153.455,104.951 153.279 C 105.060 153.102,104.441 152.520,103.575 151.984 C 102.709 151.449,102.000 150.874,102.000 150.706 C 102.000 150.538,101.722 150.400,101.383 150.400 C 101.044 150.400,100.380 150.040,99.908 149.600 C 99.436 149.160,98.813 148.800,98.525 148.800 C 98.236 148.800,98.000 148.620,98.000 148.400 C 98.000 148.180,97.640 148.000,97.200 148.000 C 96.760 148.000,96.400 147.820,96.400 147.600 C 96.400 147.380,96.040 147.200,95.600 147.200 C 95.160 147.200,94.800 147.020,94.800 146.800 C 94.800 146.580,94.451 146.400,94.024 146.400 C 93.597 146.400,93.136 146.220,93.000 146.000 C 92.864 145.780,92.328 145.600,91.810 145.600 C 91.291 145.600,90.807 145.422,90.733 145.203 C 90.660 144.985,90.105 144.766,89.500 144.716 C 88.895 144.666,88.400 144.485,88.400 144.313 C 88.400 144.141,87.961 144.000,87.424 144.000 C 86.887 144.000,86.348 143.839,86.226 143.642 C 86.105 143.445,85.329 143.190,84.503 143.075 C 83.676 142.960,82.190 142.678,81.200 142.450 C 80.210 142.222,77.656 142.027,75.524 142.017 C 73.391 142.008,71.536 141.820,71.400 141.600 C 71.085 141.090,68.788 141.090,68.000 141.600 M76.386 163.792 C 97.225 171.177,97.339 199.634,76.557 206.630 C 57.012 213.210,39.528 190.801,50.609 173.372 C 56.022 164.856,67.428 160.618,76.386 163.792 " stroke="none" fill="#000000" fill-rule="evenodd"></path><path id="path8" d="M175.315 112.500 C 175.682 112.775,176.270 113.360,176.621 113.800 C 176.972 114.240,177.129 114.330,176.969 114.000 C 176.505 113.041,175.512 112.000,175.062 112.000 C 174.834 112.000,174.948 112.225,175.315 112.500 M178.243 116.730 C 178.659 117.462,179.503 118.632,180.117 119.330 C 180.924 120.248,180.821 119.990,179.746 118.400 C 177.938 115.726,177.215 114.923,178.243 116.730 M199.600 321.200 C 199.600 321.420,199.150 321.600,198.600 321.600 C 198.050 321.600,197.600 321.780,197.600 322.000 C 197.600 322.220,197.354 322.400,197.054 322.400 C 196.278 322.400,192.000 326.603,192.000 327.365 C 192.000 327.714,191.820 328.000,191.600 328.000 C 191.380 328.000,191.200 328.360,191.200 328.800 C 191.200 329.240,191.020 329.600,190.800 329.600 C 190.580 329.600,190.400 330.219,190.400 330.976 C 190.400 331.733,190.220 332.464,190.000 332.600 C 189.760 332.748,189.600 335.404,189.600 339.224 C 189.600 343.208,189.450 345.600,189.200 345.600 C 188.980 345.600,188.800 345.780,188.800 346.000 C 188.800 346.220,189.145 346.400,189.567 346.400 C 189.988 346.400,190.414 346.625,190.512 346.900 C 190.610 347.175,190.823 347.277,190.985 347.127 C 191.147 346.976,191.157 346.653,191.006 346.409 C 190.555 345.680,190.789 332.073,191.273 330.883 C 192.540 327.763,193.028 326.952,194.546 325.444 C 196.288 323.714,198.698 322.387,201.446 321.645 C 203.719 321.031,232.306 321.036,234.554 321.650 C 239.501 323.003,242.767 325.931,244.442 330.515 C 245.443 333.254,245.580 345.963,244.619 346.924 C 244.300 347.243,244.139 347.605,244.261 347.728 C 244.384 347.851,244.916 347.521,245.442 346.994 C 246.482 345.954,246.974 333.602,246.000 333.000 C 245.780 332.864,245.600 332.144,245.600 331.400 C 245.600 330.656,245.420 329.936,245.200 329.800 C 244.980 329.664,244.800 329.203,244.800 328.776 C 244.800 328.349,244.620 328.000,244.400 328.000 C 244.180 328.000,244.000 327.759,244.000 327.464 C 244.000 326.806,240.650 323.200,240.040 323.200 C 239.798 323.200,239.600 323.064,239.600 322.898 C 239.600 322.731,239.015 322.360,238.300 322.071 C 237.585 321.783,236.687 321.379,236.305 321.174 C 235.333 320.651,199.600 320.676,199.600 321.200 M194.000 349.126 C 194.000 349.761,197.307 351.253,197.745 350.815 C 198.032 350.528,197.887 350.400,197.280 350.400 C 196.796 350.400,196.400 350.220,196.400 350.000 C 196.400 349.780,196.130 349.600,195.800 349.600 C 195.470 349.600,195.200 349.420,195.200 349.200 C 195.200 348.980,194.930 348.800,194.600 348.800 C 194.270 348.800,194.000 348.947,194.000 349.126 M240.460 349.442 C 239.731 350.266,240.200 350.657,240.981 349.876 C 241.321 349.536,241.600 349.154,241.600 349.029 C 241.600 348.609,241.006 348.824,240.460 349.442 M238.700 350.276 C 237.868 350.493,237.759 351.200,238.557 351.200 C 238.864 351.200,239.218 350.930,239.345 350.600 C 239.471 350.270,239.536 350.021,239.487 350.046 C 239.439 350.072,239.085 350.175,238.700 350.276 M236.000 351.600 C 236.000 351.820,236.259 352.000,236.576 352.000 C 236.893 352.000,237.264 351.820,237.400 351.600 C 237.536 351.380,237.277 351.200,236.824 351.200 C 236.371 351.200,236.000 351.380,236.000 351.600 M200.400 352.467 C 200.400 352.723,200.513 352.821,200.651 352.683 C 200.789 352.545,201.410 352.695,202.031 353.016 C 203.416 353.732,204.123 353.764,203.896 353.100 C 203.802 352.825,203.337 352.656,202.863 352.725 C 202.388 352.794,202.000 352.659,202.000 352.425 C 202.000 352.191,201.640 352.000,201.200 352.000 C 200.760 352.000,200.400 352.210,200.400 352.467 M234.320 352.480 C 234.693 352.853,234.907 352.853,235.280 352.480 C 235.653 352.107,235.547 352.000,234.800 352.000 C 234.053 352.000,233.947 352.107,234.320 352.480 M231.600 353.200 C 231.600 353.420,231.949 353.600,232.376 353.600 C 232.803 353.600,233.264 353.420,233.400 353.200 C 233.540 352.973,233.204 352.800,232.624 352.800 C 232.061 352.800,231.600 352.980,231.600 353.200 M205.439 353.494 C 204.958 353.976,205.220 354.400,206.000 354.400 C 206.440 354.400,206.800 354.239,206.800 354.043 C 206.800 353.593,205.760 353.174,205.439 353.494 M228.814 353.783 C 228.371 354.317,228.474 354.400,229.584 354.400 C 230.432 354.400,230.810 354.231,230.700 353.900 C 230.450 353.149,229.394 353.084,228.814 353.783 M208.847 354.362 C 208.152 354.803,209.371 355.258,210.600 355.018 C 211.040 354.932,211.490 354.845,211.600 354.824 C 211.710 354.804,211.530 354.613,211.200 354.400 C 210.455 353.918,209.571 353.904,208.847 354.362 M225.022 354.535 C 224.369 355.012,224.458 355.061,225.845 354.990 C 227.851 354.889,227.914 354.861,227.200 354.400 C 226.385 353.873,225.884 353.904,225.022 354.535 M214.400 355.231 C 213.108 355.605,213.831 355.714,217.900 355.762 C 221.201 355.800,222.169 355.475,220.100 355.023 C 218.756 354.730,215.757 354.839,214.400 355.231 " stroke="none" fill="#000000" fill-rule="evenodd"></path></g></svg>